<svg width="32" height="32" viewBox="0 0 32 32" fill="none" xmlns="http://www.w3.org/2000/svg">
<path fill-rule="evenodd" clip-rule="evenodd" d="M10 12H22C23.1046 12 24 12.8954 24 14V26C24 27.1046 23.1046 28 22 28H10C8.89543 28 8 27.1046 8 26V14C8 12.8954 8.89543 12 10 12Z" fill="#D3D3E7"/>
<path fill-rule="evenodd" clip-rule="evenodd" d="M14.8048 17.0747L18.9562 19.5408C19.2094 19.6912 19.2929 20.0187 19.1428 20.2723C19.0972 20.3492 19.033 20.4135 18.9562 20.4591L14.8048 22.9252C14.5516 23.0756 14.2247 22.992 14.0745 22.7384C14.0257 22.6559 14 22.5619 14 22.4661V17.5339C14 17.239 14.2386 17 14.5329 17C14.6286 17 14.7225 17.0258 14.8048 17.0747Z" fill="white"/>
<path fill-rule="evenodd" clip-rule="evenodd" d="M7 15.0654C7 14.4883 6.50939 14.0145 5.94128 14.1165C5.87715 14.128 5.81778 14.1403 5.76604 14.1534C3.60137 14.7029 2 16.6644 2 19C2 21.3463 3.61607 23.3151 5.7958 23.854C5.83979 23.8649 5.88941 23.8752 5.94281 23.8849C6.51007 23.988 7 23.5128 7 22.9363V15.0654Z" fill="#D3D3E7"/>
<path fill-rule="evenodd" clip-rule="evenodd" d="M25 15.0654C25 14.4883 25.4906 14.0145 26.0587 14.1165C26.1228 14.128 26.1822 14.1403 26.234 14.1534C28.3986 14.7029 30 16.6644 30 19C30 21.3463 28.3839 23.3151 26.2042 23.854C26.1602 23.8649 26.1106 23.8752 26.0572 23.8849C25.4899 23.988 25 23.5128 25 22.9363V15.0654Z" fill="#D3D3E7"/>
<path d="M16 4C21.9787 4 26.8434 8.76976 26.9963 14.7116L27 15V17H25V15C25 10.0294 20.9706 6 16 6C11.1182 6 7.14421 9.88681 7.00384 14.7346L7 15V17H5V15C5 8.92487 9.92487 4 16 4Z" fill="#D3D3E7"/>
</svg>
