<svg width="32" height="32" viewBox="0 0 32 32" fill="none" xmlns="http://www.w3.org/2000/svg">
<ellipse cx="12.6535" cy="14.0863" rx="11.2207" ry="11.2207" fill="#6E2C91"/>
<path fill-rule="evenodd" clip-rule="evenodd" d="M23.1172 9.16492C22.661 9.16492 22.2912 9.53472 22.2912 9.99089V20.3191C21.4145 19.5357 20.2566 19.0594 18.9873 19.0594C16.2503 19.0594 14.0315 21.2744 14.0315 24.0066C14.0315 26.7389 16.2503 28.9538 18.9873 28.9538C21.7244 28.9538 23.9432 26.7389 23.9432 24.0066C23.9432 23.9409 23.9419 23.8755 23.9394 23.8104C23.9419 23.784 23.9432 23.7573 23.9432 23.7303V9.99089C23.9432 9.53472 23.5734 9.16492 23.1172 9.16492Z" fill="#00D9B5"/>
<path fill-rule="evenodd" clip-rule="evenodd" d="M23.1172 9.16492C23.1172 9.16492 26.4613 9.32641 27.5507 10.7634C28.6402 12.2005 30.0304 12.3533 30.5672 11.9973C30.5672 11.9973 30.2385 14.7681 28.1479 14.7681C26.0573 14.7681 25.2253 12.4569 23.1172 14.7681V9.16492Z" fill="#00D9B5"/>
<path d="M10.2913 11.4628V16.9066C10.2913 17.3217 10.7471 17.574 11.0981 17.348L15.3627 14.6261C15.6875 14.4212 15.6875 13.9483 15.3627 13.7381L11.0981 11.0215C10.7471 10.7955 10.2913 11.0477 10.2913 11.4628Z" fill="white"/>
</svg>
