<svg width="32" height="32" viewBox="0 0 32 32" fill="none" xmlns="http://www.w3.org/2000/svg">
<rect width="32" height="32" rx="16" fill="white"/>
<path fill-rule="evenodd" clip-rule="evenodd" d="M18 7C17.4477 7 17 7.44772 17 8V17.1458C15.9385 16.4333 14.5367 16 13 16C9.68629 16 7 18.0147 7 20.5C7 22.9853 9.68629 25 13 25C16.3137 25 19 22.9853 19 20.5C19 20.3909 18.9948 20.2827 18.9846 20.1755C18.9947 20.1185 19 20.0599 19 20V8C19 7.44772 18.5523 7 18 7Z" fill="#663F87"/>
<path fill-rule="evenodd" clip-rule="evenodd" d="M18 7C18 7 22.0486 7.14689 23.3676 8.45402C24.6866 9.76114 26.3698 9.90015 27.0196 9.57634C27.0196 9.57634 26.6217 12.0967 24.0906 12.0967C21.5596 12.0967 20.5523 9.99439 18 12.0967V7Z" fill="#663F87"/>
</svg>
