<svg width="32" height="32" viewBox="0 0 32 32" fill="none" xmlns="http://www.w3.org/2000/svg">
<path fill-rule="evenodd" clip-rule="evenodd" d="M7 9.25H25C25.9665 9.25 26.75 10.0335 26.75 11V13C26.75 13.9665 25.9665 14.75 25 14.75H7C6.0335 14.75 5.25 13.9665 5.25 13V11C5.25 10.0335 6.0335 9.25 7 9.25ZM25 10.75H7C6.86193 10.75 6.75 10.8619 6.75 11V13C6.75 13.1381 6.86193 13.25 7 13.25H25C25.1381 13.25 25.25 13.1381 25.25 13V11C25.25 10.8619 25.1381 10.75 25 10.75Z" fill="#D3D3E7"/>
<path fill-rule="evenodd" clip-rule="evenodd" d="M12 5.25H13C15.0711 5.25 16.75 6.92893 16.75 9V10.75H12C10.4812 10.75 9.25 9.51878 9.25 8C9.25 6.48122 10.4812 5.25 12 5.25ZM15.25 9C15.25 7.80914 14.3248 6.83436 13.154 6.75519L13 6.75H12C11.3096 6.75 10.75 7.30964 10.75 8C10.75 8.69036 11.3096 9.25 12 9.25H15.25V9Z" fill="#D3D3E7"/>
<path fill-rule="evenodd" clip-rule="evenodd" d="M20 5.25H19C16.9289 5.25 15.25 6.92893 15.25 9V10.75H20C21.5188 10.75 22.75 9.51878 22.75 8C22.75 6.48122 21.5188 5.25 20 5.25ZM16.75 9C16.75 7.80914 17.6752 6.83436 18.846 6.75519L19 6.75H20C20.6904 6.75 21.25 7.30964 21.25 8C21.25 8.69036 20.6904 9.25 20 9.25H16.75V9Z" fill="#D3D3E7"/>
<path fill-rule="evenodd" clip-rule="evenodd" d="M6.25 13.25H25.75V26C25.75 26.9665 24.9665 27.75 24 27.75H8C7.0335 27.75 6.25 26.9665 6.25 26V13.25ZM24.25 14.75H7.75V26C7.75 26.1183 7.83223 26.2175 7.94268 26.2434L8 26.25H24C24.1381 26.25 24.25 26.1381 24.25 26V14.75Z" fill="#D3D3E7"/>
<path fill-rule="evenodd" clip-rule="evenodd" d="M6.74992 9.25H24.9999L25.5836 10.2961L24.7293 27.75H7.74992L6.55664 13.8527L6.74992 9.25Z" fill="#D3D3E7"/>
<mask id="mask0_95_8095" style="mask-type:luminance" maskUnits="userSpaceOnUse" x="6" y="9" width="20" height="19">
<path fill-rule="evenodd" clip-rule="evenodd" d="M6.74992 9.25H24.9999L25.5836 10.2961L24.7293 27.75H7.74992L6.55664 13.8527L6.74992 9.25Z" fill="white"/>
</mask>
<g mask="url(#mask0_95_8095)">
<rect x="15.25" y="6" width="1.5" height="21" rx="0.75" fill="white"/>
<rect x="25" y="16" width="1.5" height="18" rx="0.75" transform="rotate(90 25 16)" fill="white"/>
</g>
</svg>
