<svg width="36" height="36" viewBox="0 0 36 36" fill="none" xmlns="http://www.w3.org/2000/svg">
<path fill-rule="evenodd" clip-rule="evenodd" d="M26.7314 28.2316C22.4047 33.7007 12.8646 33.9416 5.49441 28.2316C-1.87579 22.5202 -1.02021 10.5855 3.30804 5.11502C7.63482 -0.354036 17.646 0.67823 25.0162 6.38823C32.385 12.0997 31.0582 22.7596 26.7314 28.2316Z" fill="#EB008B"/>
<path fill-rule="evenodd" clip-rule="evenodd" d="M5.33416 31.0345C-0.943375 26.173 -1.21993 15.4542 5.33416 7.17331C11.8899 -1.10757 25.5888 -0.146274 31.868 4.71679C38.1455 9.57821 36.9606 20.8264 30.4066 29.1073C23.8508 37.3866 11.615 35.8959 5.33416 31.0345Z" fill="#EB008B" fill-opacity="0.484785"/>
<path fill-rule="evenodd" clip-rule="evenodd" d="M24 16.584C23.3875 16.8516 22.7111 17 22 17C19.2386 17 17 14.7614 17 12C17 11.6575 17.0344 11.3231 17.1 11H10C7.79086 11 6 12.7909 6 15V20C6 22.2091 7.79086 24 10 24H20C22.2091 24 24 22.2091 24 20V16.584Z" fill="white"/>
<path fill-rule="evenodd" clip-rule="evenodd" d="M14.7628 26.2472C14.3894 26.4731 13.926 26.1456 14.0143 25.7182L14.7825 22H21.7825L14.7628 26.2472Z" fill="white"/>
<circle cx="22" cy="12" r="3" fill="#00E2BC"/>
</svg>
