<svg width="32" height="32" viewBox="0 0 32 32" fill="none" xmlns="http://www.w3.org/2000/svg">
<path fill-rule="evenodd" clip-rule="evenodd" d="M22.6641 29.4504C22.194 29.4496 21.8141 29.0688 21.8149 28.5996C21.8158 28.1304 22.1957 27.7504 22.6649 27.7504L27.6666 27.7555L27.6717 22.7547C27.6726 22.2846 28.0925 21.9098 28.5234 21.9064C28.9926 21.9072 29.3726 22.288 29.3717 22.7581L29.3649 28.6081C29.3641 29.0773 28.9841 29.4564 28.5149 29.4564L22.6641 29.4504Z" fill="#CD037A"/>
<path fill-rule="evenodd" clip-rule="evenodd" d="M3.2482 29.4263C2.779 29.4255 2.39905 29.0447 2.3999 28.5755L2.40585 22.7263C2.4067 22.2571 2.78665 21.8772 3.25585 21.8772C3.72675 21.878 4.1067 22.2588 4.10585 22.728L4.10075 27.728L9.1016 27.7331C9.5708 27.734 9.95075 28.1148 9.9499 28.5848C9.94905 29.054 9.5691 29.4331 9.0999 29.4331L3.2482 29.4263Z" fill="#6E2C91"/>
<path fill-rule="evenodd" clip-rule="evenodd" d="M2.42993 9.09905L2.43588 3.24905C2.43673 2.77985 2.81668 2.3999 3.28588 2.3999L9.13673 2.40585C9.60678 2.4067 9.98673 2.7875 9.98588 3.2567C9.98503 3.7259 9.60508 4.10585 9.13588 4.10585L4.13503 4.10075L4.12993 9.10075C4.12908 9.56995 3.74913 9.9499 3.27993 9.9499C2.80903 9.94905 2.42908 9.56825 2.42993 9.09905Z" fill="#CD037A"/>
<path fill-rule="evenodd" clip-rule="evenodd" d="M27.6949 9.12813L27.7 4.12813L22.7 4.12303C22.2299 4.12218 21.85 3.74138 21.8508 3.27218C21.8517 2.80298 22.2316 2.42303 22.7008 2.42303L28.5517 2.42898C29.0217 2.42983 29.4017 2.81063 29.4008 3.27983L29.3949 9.12983C29.394 9.59903 29.0141 9.97898 28.5449 9.97898C28.074 9.97813 27.694 9.59733 27.6949 9.12813Z" fill="#6E2C91"/>
<rect x="7.19995" y="7.19995" width="17.6" height="17.6" rx="3" fill="#00E2BC"/>
<rect x="8.7998" y="8.80005" width="6.4" height="6.4" rx="1" fill="#3D2360"/>
<mask id="path-7-inside-1_95_8210" fill="white">
<rect x="16.7998" y="16.8" width="6.4" height="6.4" rx="1"/>
</mask>
<rect x="16.7998" y="16.8" width="6.4" height="6.4" rx="1" stroke="#3D2360" stroke-width="4" mask="url(#path-7-inside-1_95_8210)"/>
<rect x="17.5999" y="8.80005" width="1.6" height="6.4" rx="0.8" fill="#3D2360"/>
<rect x="20.7998" y="8.80005" width="1.6" height="1.6" rx="0.8" fill="#3D2360"/>
<rect x="20.7998" y="11.2001" width="1.6" height="4" rx="0.8" fill="#3D2360"/>
<rect width="1.6" height="6.4" rx="0.8" transform="matrix(0 1 1 0 8.7998 17.6)" fill="#3D2360"/>
<rect width="1.6" height="1.6" rx="0.799999" transform="matrix(0 1 1 0 8.7998 20.7999)" fill="#3D2360"/>
<rect width="1.6" height="4" rx="0.799999" transform="matrix(0 1 1 0 11.1997 20.7999)" fill="#3D2360"/>
</svg>
