<svg width="32" height="32" viewBox="0 0 32 32" fill="none" xmlns="http://www.w3.org/2000/svg">
<g opacity="0.7">
<path fill-rule="evenodd" clip-rule="evenodd" d="M9.5 8.05514C9.5 5.81527 11.2914 4 13.5005 4C15.7096 4 17.5 5.81527 17.5 8.05514H9.5Z" stroke="white" stroke-width="1.33333"/>
<path fill-rule="evenodd" clip-rule="evenodd" d="M7.06202 7.25H19.9378C21.1161 7.25 22.142 8.02633 22.2624 9.11207L22.5812 12H17.2696L17.1117 12.0057C15.9258 12.0933 14.9999 13.0865 14.9999 14.3037V24.75H5.58581C4.23794 24.75 3.12284 23.7373 3.26113 22.4839L4.73727 9.11269C4.85624 8.0268 5.88319 7.25 7.06202 7.25Z" fill="white"/>
<path fill-rule="evenodd" clip-rule="evenodd" d="M26.8365 13.5063L26.7303 13.5H17.2697C16.8724 13.5 16.5567 13.7617 16.5069 14.0859L16.5 14.1757V26.8233C16.5 27.158 16.7825 27.4477 17.1635 27.4937L17.2697 27.5H26.73L26.8365 27.4937C27.1829 27.4519 27.4478 27.2087 27.4931 26.9134L27.5 26.8233V14.1757C27.5 13.8418 27.2174 13.5523 26.8365 13.5063ZM25.3333 14.942C25.7015 14.942 26 15.2405 26 15.6087C26 15.9434 25.7533 16.2205 25.4318 16.2681L25.3333 16.2754H18.6667C18.2985 16.2754 18 15.9769 18 15.6087C18 15.274 18.2467 14.9969 18.5682 14.9493L18.6667 14.942H25.3333ZM24 22.1304C24 21.7622 23.7015 21.4638 23.3333 21.4638H18.6667L18.5682 21.471C18.2467 21.5186 18 21.7957 18 22.1304C18 22.4986 18.2985 22.7971 18.6667 22.7971H23.3333L23.4318 22.7899C23.7533 22.7423 24 22.4652 24 22.1304ZM21.3333 18.2029C21.7015 18.2029 22 18.5014 22 18.8696C22 19.2043 21.7533 19.4814 21.4318 19.529L21.3333 19.5362H18.6667C18.2985 19.5362 18 19.2378 18 18.8696C18 18.5348 18.2467 18.2577 18.5682 18.2101L18.6667 18.2029H21.3333ZM26 25.3913C26 25.0231 25.7015 24.7246 25.3333 24.7246H18.6667L18.5682 24.7319C18.2467 24.7795 18 25.0566 18 25.3913C18 25.7595 18.2985 26.058 18.6667 26.058H25.3333L25.4318 26.0507C25.7533 26.0031 26 25.726 26 25.3913Z" fill="white"/>
</g>
</svg>
