<svg width="32" height="32" viewBox="0 0 32 32" fill="none" xmlns="http://www.w3.org/2000/svg">
<mask id="mask0_95_368" style="mask-type:luminance" maskUnits="userSpaceOnUse" x="0" y="0" width="32" height="32">
<rect width="32" height="32" fill="white"/>
</mask>
<g mask="url(#mask0_95_368)">
<path fill-rule="evenodd" clip-rule="evenodd" d="M8.80005 11C8.80005 9.34315 10.1432 8 11.8 8H28.2001C29.8569 8 31.2001 9.34315 31.2001 11V19.4C31.2001 21.0569 29.8569 22.4 28.2001 22.4H11.8C10.1432 22.4 8.80005 21.0569 8.80005 19.4V11Z" fill="#00E2BC"/>
<path fill-rule="evenodd" clip-rule="evenodd" d="M13.528 17.592V13.84L12.608 14.4L12 13.328L13.84 12.096H15.08V17.592H13.528ZM17.12 17.592V16.336L19.16 14.864C19.736 14.448 19.872 14.2 19.872 13.912C19.872 13.608 19.608 13.408 19.248 13.408C18.776 13.408 18.408 13.632 17.984 14.056L17.024 13.088C17.632 12.368 18.376 12 19.288 12C20.592 12 21.472 12.784 21.472 13.848C21.472 14.568 21.184 15.128 20.208 15.752L19.496 16.208H21.52V17.592H17.12ZM25.48 17.696C24.432 17.696 23.64 17.328 23.128 16.784L24 15.752C24.408 16.136 24.92 16.312 25.392 16.312C25.888 16.312 26.136 16.128 26.136 15.88C26.136 15.616 25.952 15.472 25.296 15.48L24.632 15.488V14.192H25.288C25.8 14.192 26.032 14.056 26.032 13.808C26.032 13.536 25.752 13.384 25.304 13.384C24.848 13.384 24.456 13.6 24.104 13.928L23.248 12.976C23.728 12.424 24.416 12 25.472 12C26.832 12 27.616 12.648 27.616 13.512C27.616 14.104 27.232 14.576 26.608 14.76C27.232 14.904 27.736 15.344 27.736 16.024C27.736 17 26.856 17.696 25.48 17.696Z" fill="white"/>
<circle cx="9.83543" cy="14.6354" r="8" transform="rotate(-30 9.83543 14.6354)" fill="#EB008B" stroke="#3D2360" stroke-width="2"/>
<rect x="12.7961" y="21.578" width="2.4" height="8" rx="1" transform="rotate(-30 12.7961 21.578)" fill="#3D2360"/>
<path fill-rule="evenodd" clip-rule="evenodd" d="M8.7812 18.9652V13.1179L7.34743 13.9907L6.3999 12.32L9.26743 10.4H11.1999V18.9652H8.7812Z" fill="white"/>
</g>
</svg>
