<svg width="32" height="32" viewBox="0 0 32 32" fill="none" xmlns="http://www.w3.org/2000/svg">
<path fill-rule="evenodd" clip-rule="evenodd" d="M4.7998 12.6C4.7998 10.9431 6.14295 9.6 7.7998 9.6H24.1998C25.8567 9.6 27.1998 10.9431 27.1998 12.6V19.4C27.1998 21.0568 25.8567 22.4 24.1998 22.4H7.7998C6.14295 22.4 4.7998 21.0569 4.7998 19.4V12.6Z" fill="#00E2BC"/>
<path fill-rule="evenodd" clip-rule="evenodd" d="M22.6641 29.4504C22.194 29.4495 21.8141 29.0687 21.8149 28.5995C21.8158 28.1303 22.1957 27.7504 22.6649 27.7504L27.6666 27.7555L27.6717 22.7546C27.6726 22.2846 28.0925 21.9097 28.5234 21.9063C28.9926 21.9072 29.3726 22.288 29.3717 22.758L29.3649 28.608C29.3641 29.0772 28.9841 29.4563 28.5149 29.4563L22.6641 29.4504Z" fill="#CD037A"/>
<path fill-rule="evenodd" clip-rule="evenodd" d="M3.2482 29.4263C2.779 29.4255 2.39905 29.0447 2.3999 28.5755L2.40585 22.7263C2.4067 22.2571 2.78665 21.8772 3.25585 21.8772C3.72675 21.878 4.1067 22.2588 4.10585 22.728L4.10075 27.728L9.1016 27.7331C9.5708 27.734 9.95075 28.1148 9.9499 28.5848C9.94905 29.054 9.5691 29.4331 9.0999 29.4331L3.2482 29.4263Z" fill="#6E2C91"/>
<path fill-rule="evenodd" clip-rule="evenodd" d="M2.42993 9.09906L2.43588 3.24906C2.43673 2.77986 2.81668 2.39991 3.28588 2.39991L9.13673 2.40586C9.60678 2.40671 9.98673 2.78751 9.98588 3.25671C9.98503 3.72591 9.60508 4.10586 9.13588 4.10586L4.13503 4.10076L4.12993 9.10076C4.12908 9.56996 3.74913 9.94991 3.27993 9.94991C2.80903 9.94906 2.42908 9.56826 2.42993 9.09906Z" fill="#CD037A"/>
<path fill-rule="evenodd" clip-rule="evenodd" d="M27.6949 9.12814L27.7 4.12813L22.7 4.12303C22.2299 4.12218 21.85 3.74138 21.8508 3.27218C21.8517 2.80298 22.2316 2.42303 22.7008 2.42303L28.5517 2.42898C29.0217 2.42983 29.4017 2.81063 29.4008 3.27983L29.3949 9.12983C29.394 9.59903 29.0141 9.97898 28.5449 9.97898C28.074 9.97814 27.694 9.59733 27.6949 9.12814Z" fill="#6E2C91"/>
<path fill-rule="evenodd" clip-rule="evenodd" d="M9.528 18.392V14.64L8.608 15.2L8 14.128L9.84 12.896H11.08V18.392H9.528ZM13.12 18.392V17.136L15.16 15.664C15.736 15.248 15.872 15 15.872 14.712C15.872 14.408 15.608 14.208 15.248 14.208C14.776 14.208 14.408 14.432 13.984 14.856L13.024 13.888C13.632 13.168 14.376 12.8 15.288 12.8C16.592 12.8 17.472 13.584 17.472 14.648C17.472 15.368 17.184 15.928 16.208 16.552L15.496 17.008H17.52V18.392H13.12ZM21.48 18.496C20.432 18.496 19.64 18.128 19.128 17.584L20 16.552C20.408 16.936 20.92 17.112 21.392 17.112C21.888 17.112 22.136 16.928 22.136 16.68C22.136 16.416 21.952 16.272 21.296 16.28L20.632 16.288V14.992H21.288C21.8 14.992 22.032 14.856 22.032 14.608C22.032 14.336 21.752 14.184 21.304 14.184C20.848 14.184 20.456 14.4 20.104 14.728L19.248 13.776C19.728 13.224 20.416 12.8 21.472 12.8C22.832 12.8 23.616 13.448 23.616 14.312C23.616 14.904 23.232 15.376 22.608 15.56C23.232 15.704 23.736 16.144 23.736 16.824C23.736 17.8 22.856 18.496 21.48 18.496Z" fill="white"/>
</svg>
