<svg width="32" height="32" viewBox="0 0 32 32" fill="none" xmlns="http://www.w3.org/2000/svg">
<path fill-rule="evenodd" clip-rule="evenodd" d="M6.57265 3H19.4274C20.2959 3 21 3.67591 21 4.50968V27.0892C21 27.923 20.2959 28.5989 19.4274 28.5989H6.57265C5.7041 28.5989 5 27.923 5 27.0892V4.50968C5 3.67591 5.7041 3 6.57265 3Z" fill="#00E2BC"/>
<rect x="6.52222" y="5.25867" width="12.9778" height="18.8227" rx="0.851351" fill="#3D2360"/>
<rect x="11.0889" y="25.5873" width="3.80555" height="1.50582" rx="0.567568" fill="#3D2360"/>
<path fill-rule="evenodd" clip-rule="evenodd" d="M28 21.1226V27.6505C28 29.1551 26.7912 30.3748 25.3 30.3748H18.8304C17.3393 30.3748 16.1304 29.1551 16.1304 27.6505V21.1226C16.1304 19.618 17.3393 18.3983 18.8304 18.3983H25.3C26.7912 18.3983 28 19.618 28 21.1226Z" fill="#EB008B"/>
<path fill-rule="evenodd" clip-rule="evenodd" d="M9.36353 10H11.2253C11.7296 10 12.1344 10.1387 12.4399 10.4162C12.7453 10.6937 12.8981 11.062 12.8981 11.5211C12.8981 11.849 12.8217 12.1315 12.669 12.3686C12.5163 12.6058 12.3041 12.7823 12.0326 12.8984V12.9589L13.0435 14.4497V14.5405H12.0544L11.0726 13.0422H10.2435V14.5405H9.36353V10ZM11.989 11.5286C11.989 11.2915 11.915 11.1112 11.7672 10.9876C11.6193 10.864 11.4217 10.8022 11.1744 10.8022H10.2435V12.2551H11.1963C11.4338 12.2551 11.6253 12.1933 11.7708 12.0697C11.9163 11.9461 11.989 11.7658 11.989 11.5286ZM14.4981 14.2076H14.4617V15.7211H13.589V11.3622H14.149L14.2799 11.8086H14.3235C14.3284 11.7935 14.3393 11.7746 14.3563 11.7519C14.3732 11.7292 14.4096 11.6876 14.4653 11.627C14.5211 11.5665 14.5841 11.5135 14.6544 11.4681C14.7247 11.4227 14.8205 11.3811 14.9417 11.3432C15.0629 11.3054 15.1938 11.2865 15.3344 11.2865C15.7466 11.2865 16.086 11.4378 16.3526 11.7405C16.6193 12.0432 16.7526 12.4443 16.7526 12.9438C16.7526 13.4332 16.6205 13.8342 16.3563 14.147C16.092 14.4598 15.7611 14.6162 15.3635 14.6162C15.2375 14.6162 15.1211 14.6023 15.0144 14.5746C14.9078 14.5468 14.8241 14.5128 14.7635 14.4724C14.7029 14.4321 14.6508 14.3917 14.6072 14.3514C14.5635 14.311 14.5344 14.2782 14.5199 14.253L14.4981 14.2076ZM14.4181 12.9589C14.4181 13.2364 14.486 13.4571 14.6217 13.6211C14.7575 13.785 14.932 13.867 15.1453 13.867C15.3587 13.867 15.5332 13.7825 15.669 13.6135C15.8047 13.4445 15.8726 13.2263 15.8726 12.9589C15.8726 12.6915 15.8047 12.4708 15.669 12.2968C15.5332 12.1227 15.3587 12.0357 15.1453 12.0357C14.932 12.0357 14.7575 12.1189 14.6217 12.2854C14.486 12.4519 14.4181 12.6764 14.4181 12.9589Z" fill="black"/>
<path fill-rule="evenodd" clip-rule="evenodd" d="M9.36353 10H11.2253C11.7296 10 12.1344 10.1387 12.4399 10.4162C12.7453 10.6937 12.8981 11.062 12.8981 11.5211C12.8981 11.849 12.8217 12.1315 12.669 12.3686C12.5163 12.6058 12.3041 12.7823 12.0326 12.8984V12.9589L13.0435 14.4497V14.5405H12.0544L11.0726 13.0422H10.2435V14.5405H9.36353V10ZM11.989 11.5286C11.989 11.2915 11.915 11.1112 11.7672 10.9876C11.6193 10.864 11.4217 10.8022 11.1744 10.8022H10.2435V12.2551H11.1963C11.4338 12.2551 11.6253 12.1933 11.7708 12.0697C11.9163 11.9461 11.989 11.7658 11.989 11.5286ZM14.4981 14.2076H14.4617V15.7211H13.589V11.3622H14.149L14.2799 11.8086H14.3235C14.3284 11.7935 14.3393 11.7746 14.3563 11.7519C14.3732 11.7292 14.4096 11.6876 14.4653 11.627C14.5211 11.5665 14.5841 11.5135 14.6544 11.4681C14.7247 11.4227 14.8205 11.3811 14.9417 11.3432C15.0629 11.3054 15.1938 11.2865 15.3344 11.2865C15.7466 11.2865 16.086 11.4378 16.3526 11.7405C16.6193 12.0432 16.7526 12.4443 16.7526 12.9438C16.7526 13.4332 16.6205 13.8342 16.3563 14.147C16.092 14.4598 15.7611 14.6162 15.3635 14.6162C15.2375 14.6162 15.1211 14.6023 15.0144 14.5746C14.9078 14.5468 14.8241 14.5128 14.7635 14.4724C14.7029 14.4321 14.6508 14.3917 14.6072 14.3514C14.5635 14.311 14.5344 14.2782 14.5199 14.253L14.4981 14.2076ZM14.4181 12.9589C14.4181 13.2364 14.486 13.4571 14.6217 13.6211C14.7575 13.785 14.932 13.867 15.1453 13.867C15.3587 13.867 15.5332 13.7825 15.669 13.6135C15.8047 13.4445 15.8726 13.2263 15.8726 12.9589C15.8726 12.6915 15.8047 12.4708 15.669 12.2968C15.5332 12.1227 15.3587 12.0357 15.1453 12.0357C14.932 12.0357 14.7575 12.1189 14.6217 12.2854C14.486 12.4519 14.4181 12.6764 14.4181 12.9589Z" fill="white"/>
<path fill-rule="evenodd" clip-rule="evenodd" d="M22.3098 22.2979V20.4323C22.3094 20.4219 22.3158 20.4122 22.3259 20.4078C22.336 20.4034 22.348 20.4051 22.3563 20.412L26.4896 23.6211C26.4962 23.6261 26.5 23.6335 26.5 23.6414C26.5 23.6492 26.4962 23.6567 26.4896 23.6616L22.3563 26.8692C22.3478 26.8764 22.3354 26.878 22.3251 26.8732C22.3148 26.8684 22.3087 26.8582 22.3098 26.8475V25.0919C22.3096 25.0121 22.2482 24.9439 22.1639 24.9299C21.61 24.8373 19.5651 24.7 17.5916 27.2004C17.5819 27.2131 17.5649 27.2189 17.5487 27.215C17.5326 27.2112 17.5206 27.1985 17.5186 27.1831C17.4535 26.4585 17.2937 22.2979 22.3098 22.2979Z" fill="white"/>
</svg>
