<svg width="32" height="32" viewBox="0 0 32 32" fill="none" xmlns="http://www.w3.org/2000/svg">
<path fill-rule="evenodd" clip-rule="evenodd" d="M18.7805 12.9896C18.7805 13.536 18.3372 13.9793 17.7909 13.9793C17.2433 13.9793 16.8 13.536 16.8 12.9896C16.8 12.4433 17.2433 12 17.7909 12C18.3372 12 18.7805 12.4433 18.7805 12.9896Z" fill="white"/>
<path fill-rule="evenodd" clip-rule="evenodd" d="M20.1448 27.785L5.69384 26.5207C4.62224 26.4269 3.83018 25.4837 3.92386 24.413L5.74636 3.58179C5.8399 2.5126 6.7837 1.72129 7.8553 1.81504L22.3062 3.07933C23.3778 3.17308 24.1699 4.11627 24.0763 5.18545L22.2538 26.0166C22.1602 27.0874 21.2164 27.8787 20.1448 27.785Z" fill="#049A80"/>
<path fill-rule="evenodd" clip-rule="evenodd" d="M19.653 28.8H5.14689C4.0712 28.8 3.19995 27.9294 3.19995 26.8546V5.94383C3.19995 4.87056 4.0712 4 5.14689 4H19.653C20.7287 4 21.6 4.87056 21.6 5.94383V26.8546C21.6 27.9294 20.7287 28.8 19.653 28.8Z" fill="#00E2BC"/>
<path d="M11.9999 20.8C12.4417 20.8 12.7999 21.1582 12.7999 21.6C12.7999 22.0103 12.491 22.3484 12.0932 22.3946L11.9999 22.4H6.39985C5.95803 22.4 5.59985 22.0418 5.59985 21.6C5.59985 21.1897 5.90869 20.8516 6.30656 20.8054L6.39985 20.8H11.9999Z" fill="white"/>
<path d="M13.4221 24C13.9621 24 14.3999 24.3582 14.3999 24.8C14.3999 25.2103 14.0224 25.5484 13.5361 25.5946L13.4221 25.6H6.57763C6.03762 25.6 5.59985 25.2418 5.59985 24.8C5.59985 24.3897 5.97732 24.0516 6.4636 24.0054L6.57763 24H13.4221Z" fill="#3D2360"/>
<path d="M9.59985 17.6C10.0417 17.6 10.3999 17.9582 10.3999 18.4C10.3999 18.8103 10.091 19.1484 9.69315 19.1946L9.59985 19.2H6.39985C5.95803 19.2 5.59985 18.8418 5.59985 18.4C5.59985 17.9897 5.90869 17.6516 6.30656 17.6054L6.39985 17.6H9.59985Z" fill="#3D2360"/>
<path fill-rule="evenodd" clip-rule="evenodd" d="M8.18442 11.3099V10.2901H10.8219V11.0684C10.8219 11.8377 10.594 12.452 10.1383 12.9112C9.68252 13.3704 9.06946 13.6 8.29909 13.6C7.47579 13.6 6.8201 13.3316 6.332 12.7949C5.8439 12.2581 5.59985 11.5932 5.59985 10.8C5.59985 10.0068 5.84684 9.34185 6.34082 8.80511C6.8348 8.26837 7.49344 8 8.31673 8C8.5696 8 8.80777 8.02236 9.03124 8.06709C9.2547 8.11182 9.437 8.16699 9.57814 8.23259C9.71928 8.29819 9.8413 8.36528 9.94421 8.43387C10.0472 8.50245 10.1192 8.55761 10.1603 8.59936L10.2309 8.67093L9.46347 9.67284C9.43406 9.643 9.38996 9.60423 9.33115 9.55655C9.27234 9.50884 9.1415 9.44473 8.93862 9.36422C8.73573 9.28371 8.52256 9.24345 8.29909 9.24345C7.8992 9.24345 7.56988 9.38807 7.31113 9.67732C7.05238 9.96656 6.92301 10.3408 6.92301 10.8C6.92301 11.2592 7.05238 11.6334 7.31113 11.9227C7.56988 12.2119 7.8992 12.3565 8.29909 12.3565C8.64605 12.3565 8.91215 12.2656 9.09739 12.0837C9.28264 11.9018 9.38114 11.6648 9.3929 11.3725V11.3099H8.18442ZM15.9999 11.8824C15.9999 12.3834 15.8293 12.7755 15.4882 13.0588C15.1472 13.3421 14.6649 13.4837 14.0416 13.4837H11.5452V8.11629H14.0063C14.6179 8.11629 15.0795 8.24452 15.3912 8.50096C15.7029 8.7574 15.8587 9.11821 15.8587 9.58339C15.8587 9.80405 15.8029 10.0098 15.6911 10.2006C15.5794 10.3915 15.4265 10.5465 15.2324 10.6658V10.7374C15.4735 10.8149 15.6617 10.9565 15.797 11.1623C15.9322 11.3681 15.9999 11.6081 15.9999 11.8824ZM14.1033 11.2562H12.8243V12.3655H14.0504C14.2151 12.3655 14.3518 12.3118 14.4606 12.2045C14.5694 12.0971 14.6238 11.9689 14.6238 11.8198C14.6238 11.6826 14.5753 11.5574 14.4782 11.4441C14.3812 11.3308 14.2562 11.2682 14.1033 11.2562ZM14.5003 9.77125C14.5003 9.62215 14.4518 9.49542 14.3547 9.39105C14.2577 9.28669 14.1327 9.2345 13.9798 9.2345H12.8243V10.2901H13.9534C14.1122 10.2901 14.243 10.2394 14.3459 10.138C14.4488 10.0366 14.5003 9.91438 14.5003 9.77125Z" fill="#3D2360"/>
<ellipse cx="23.2001" cy="24" rx="6.4" ry="6.4" fill="#EB008B"/>
<path d="M22.3841 23.1841V24H23.2001V23.1841H22.3841ZM22.3841 24.8159H23.2001V24H22.3841V24.8159ZM24.016 24.8159V24H23.2001V24.8159H24.016ZM24.016 23.1841H23.2001V24H24.016V23.1841ZM23.2001 21.6H24.8319C24.8319 20.6987 24.1013 19.9681 23.2001 19.9681V21.6ZM23.2001 21.6V19.9681C22.2988 19.9681 21.5682 20.6987 21.5682 21.6H23.2001ZM23.2001 23.1841V21.6H21.5682V23.1841H23.2001ZM20.8001 24H22.3841V22.3681H20.8001V24ZM20.8001 24H20.8001V22.3681C19.8988 22.3681 19.1682 23.0987 19.1682 24H20.8001ZM20.8001 24H20.8001H19.1682C19.1682 24.9013 19.8988 25.6319 20.8001 25.6319V24ZM22.3841 24H20.8001V25.6319H22.3841V24ZM23.2001 26.4V24.8159H21.5682V26.4H23.2001ZM23.2001 26.4H21.5682C21.5682 27.3013 22.2988 28.0319 23.2001 28.0319V26.4ZM23.2001 26.4V28.0319C24.1013 28.0319 24.8319 27.3013 24.8319 26.4H23.2001ZM23.2001 24.8159V26.4H24.8319V24.8159H23.2001ZM25.6001 24H24.016V25.6319H25.6001V24ZM25.6001 24V25.6319C26.5013 25.6319 27.2319 24.9013 27.2319 24H25.6001ZM25.6001 24H27.2319C27.2319 23.0987 26.5013 22.3681 25.6001 22.3681V24ZM24.016 24H25.6001V22.3681H24.016V24ZM23.2001 21.6V23.1841H24.8319V21.6H23.2001Z" fill="white"/>
</svg>
