<svg width="32" height="32" viewBox="0 0 32 32" fill="none" xmlns="http://www.w3.org/2000/svg">
<path fill-rule="evenodd" clip-rule="evenodd" d="M2.03818 15.97C1.6794 19.0592 3.80171 23.5317 10.4327 24.3239C14.7949 24.845 19.2717 23.5652 21.6333 23.3021C22.3019 23.2273 22.8004 23.2791 23.083 23.5049C23.5124 23.8481 23.5018 24.2794 23.1468 25.0522C22.783 25.8406 23.2606 26.1942 24.0949 25.8936C26.2326 25.1229 30.5688 21.0781 29.9379 15.2474C29.2973 9.33092 24.0132 5.4822 16.0181 6.05661C7.8898 6.64213 2.61316 11.002 2.03818 15.97Z" fill="#D3D3E7"/>
<path d="M2.03818 15.97C1.6794 19.0592 3.80171 23.5317 10.4327 24.3239C14.7949 24.845 19.2717 23.5652 21.6333 23.3021C22.3019 23.2273 22.8004 23.2791 23.083 23.5049C23.5124 23.8481 23.5018 24.2794 23.1468 25.0522C22.783 25.8406 23.2606 26.1942 24.0949 25.8936C26.2326 25.1229 30.5688 21.0781 29.9379 15.2474C29.2973 9.33092 24.0132 5.4822 16.0181 6.05661C7.8898 6.64213 2.61316 11.002 2.03818 15.97" stroke="#D3D3E7" stroke-width="1.3"/>
<path fill-rule="evenodd" clip-rule="evenodd" d="M10.0023 16.5053L9.09034 14.7888L8.17962 16.5053H10.0023ZM12.1095 18.122C12.2579 18.4031 12.1684 18.7604 11.9094 18.9221C11.8247 18.9759 11.7315 18.9998 11.6404 18.9998C11.4532 18.9998 11.2714 18.8948 11.1706 18.7065L10.6244 17.6776H7.55734L7.01064 18.7065C6.86205 18.9863 6.53055 19.0832 6.27252 18.9221C6.01218 18.7604 5.92299 18.4031 6.07237 18.122L6.76778 16.8124C6.76778 16.8111 6.76977 16.8104 6.76977 16.8082L8.62153 13.3209C8.71769 13.1384 8.89616 13.0271 9.09034 13.0271C9.28463 13.0271 9.46333 13.1384 9.56036 13.3209L11.4101 16.8048C11.4112 16.8082 11.4133 16.8111 11.4151 16.8146L12.1095 18.122ZM16.052 15.9955L17.8941 14.0013C18.1054 13.7723 18.1054 13.4009 17.8941 13.1721C17.6821 12.9426 17.3402 12.9426 17.1285 13.1721L15.2856 15.1658L13.4445 13.1721C13.2329 12.9426 12.8901 12.9426 12.6785 13.1721C12.4677 13.4009 12.4677 13.7723 12.6785 14.0006L14.5203 15.9955L12.6775 17.9898C12.467 18.2189 12.467 18.5899 12.6775 18.8181C12.7842 18.9338 12.9221 18.9905 13.06 18.9905C13.1997 18.9905 13.3377 18.9338 13.4436 18.8181L15.2856 16.8237L17.1285 18.8181C17.2346 18.9338 17.3733 18.9905 17.5113 18.9905C17.6492 18.9905 17.7891 18.9338 17.8941 18.8181C18.1054 18.5899 18.1054 18.2189 17.8941 17.9898L16.052 15.9955ZM19.087 13.0002C18.7882 13.0002 18.5465 13.2632 18.5465 13.586V18.4144C18.5465 18.7382 18.7882 18.9998 19.087 18.9998C19.3863 18.9998 19.6281 18.7382 19.6281 18.4144V13.586C19.6281 13.2632 19.3863 13.0002 19.087 13.0002ZM26 17.2076C26 18.1968 25.2572 18.9998 24.3441 18.9998H20.8555C20.5551 18.9998 20.3136 18.7382 20.3136 18.4144C20.3136 18.0905 20.5551 17.828 20.8555 17.828H24.3441C24.6601 17.828 24.9173 17.5501 24.9173 17.2076C24.9173 16.8658 24.6601 16.5884 24.3441 16.5884H21.8207C20.9079 16.5884 20.1651 15.7841 20.1651 14.7956C20.1651 13.8076 20.9079 13.0038 21.8207 13.0038H25.297C25.596 13.0038 25.8387 13.2654 25.8387 13.5895C25.8387 13.9132 25.596 14.1756 25.297 14.1756H21.8207C21.5041 14.1756 21.2478 14.4532 21.2478 14.7956C21.2478 15.1376 21.5041 15.4162 21.8207 15.4162H24.3441C25.2572 15.4162 26 16.2192 26 17.2076Z" fill="white"/>
</svg>
