<svg width="36" height="36" viewBox="0 0 36 36" fill="none" xmlns="http://www.w3.org/2000/svg">
<path fill-rule="evenodd" clip-rule="evenodd" d="M26.7314 28.2316C22.4047 33.7007 12.8646 33.9416 5.49441 28.2316C-1.87579 22.5202 -1.02021 10.5855 3.30804 5.11502C7.63482 -0.354036 17.646 0.67823 25.0162 6.38823C32.385 12.0997 31.0582 22.7596 26.7314 28.2316Z" fill="#EB008B"/>
<path fill-rule="evenodd" clip-rule="evenodd" d="M5.33416 31.0345C-0.943375 26.173 -1.21993 15.4542 5.33416 7.17331C11.8899 -1.10757 25.5888 -0.146274 31.868 4.71679C38.1455 9.57821 36.9606 20.8264 30.4066 29.1073C23.8508 37.3866 11.615 35.8959 5.33416 31.0345Z" fill="#EB008B" fill-opacity="0.484785"/>
<path fill-rule="evenodd" clip-rule="evenodd" d="M14.2783 25.3491C14.6873 25.718 15.3098 25.7148 15.715 25.3418L16.1731 24.9202C17.9167 23.2971 19.1154 22.1453 19.7692 21.4647C20.859 20.339 21.6538 19.3377 22.1538 18.4607C22.7179 17.4529 23 16.4581 23 15.4764C23 14.6518 22.8077 13.8959 22.4231 13.2088C22.0385 12.5216 21.5096 11.9817 20.8365 11.589C20.1635 11.1963 19.4231 11 18.6154 11C17.9231 11 17.2564 11.1571 16.6154 11.4712C15.9744 11.7853 15.4359 12.2042 15 12.7277C14.5641 12.2042 14.0256 11.7853 13.3846 11.4712C12.7436 11.1571 12.0833 11 11.4038 11C10.5833 11 9.83974 11.1963 9.17308 11.589C8.50641 11.9817 7.97756 12.5216 7.58654 13.2088C7.19551 13.8959 7 14.6518 7 15.4764C7 16.4712 7.28846 17.4725 7.86538 18.4804C8.35256 19.3573 9.14103 20.3586 10.2308 21.4843C10.9231 22.2042 12.1282 23.3626 13.8462 24.9594L14.2783 25.3491Z" fill="white"/>
</svg>
