<svg width="16" height="16" viewBox="0 0 16 16" fill="none" xmlns="http://www.w3.org/2000/svg">
<path fill-rule="evenodd" clip-rule="evenodd" d="M3.48371 13.9613C-0.0715909 11.4104 -1.09665 7.39364 1.30072 3.60995C3.69756 -0.173453 8.84527 -0.3375 12.4003 2.21311C15.9559 4.76401 17.0985 9.26916 14.8259 13.139C13.3615 15.5708 7.03927 16.512 3.48371 13.9613Z" fill="#EB008B"/>
<path fill-rule="evenodd" clip-rule="evenodd" d="M11.4978 5.69629C12.208 6.2491 13.0637 7.08892 13.3339 7.67909C13.3477 7.69851 13.3565 7.71869 13.3599 7.73965C13.4378 7.93447 13.4448 8.09819 13.3522 8.20963C13.3384 8.22616 13.3244 8.24177 13.31 8.25649C13.2153 8.96952 11.5064 10.5742 10.7014 11.3301C10.5572 11.4654 10.4421 11.5736 10.3703 11.6445C9.4768 12.5281 8.19869 13.6465 7.57961 12.9014C7.20547 12.4513 8.45735 11.1483 9.43401 10.3881C9.51946 10.3216 9.68227 10.1641 9.89511 9.95818C10.2903 9.5759 10.858 9.02679 11.4231 8.58354C10.5469 8.67873 9.52756 8.66421 8.67253 8.63305C8.53367 8.62799 8.31359 8.62362 8.03814 8.61816C6.31468 8.58397 2.42367 8.5068 2.69623 7.94723C3.1098 7.09775 6.7382 7.20413 8.52834 7.25661C8.9381 7.26862 9.25155 7.27781 9.40807 7.27207C9.875 7.25496 10.3873 7.25124 10.8838 7.26413C10.7723 7.15936 10.6643 7.05449 10.5614 6.95274C10.4897 6.88181 10.3746 6.77369 10.2305 6.63837L10.2304 6.63835C9.32868 5.7916 7.29279 3.87991 7.6619 3.34934C8.22215 2.54381 10.1068 4.36694 11.0367 5.26641C11.2495 5.4723 11.4123 5.6298 11.4978 5.69629Z" fill="white"/>
</svg>
