<svg width="32" height="32" viewBox="0 0 32 32" fill="none" xmlns="http://www.w3.org/2000/svg">
<rect x="2.48999" y="7.68872" width="19.2" height="19.2" rx="4" transform="rotate(-13 2.48999 7.68872)" fill="#049A80"/>
<rect x="3.68652" y="5.60559" width="19.2" height="19.2" rx="4" transform="rotate(-13 3.68652 5.60559)" fill="#00E2BC"/>
<path fill-rule="evenodd" clip-rule="evenodd" d="M11.6059 14.1184L11.2454 12.5569L15.3409 11.6114L15.616 12.803C15.888 13.981 15.7513 15.0032 15.2059 15.8697C14.6605 16.7362 13.7897 17.3076 12.5935 17.5837C11.3151 17.8789 10.2021 17.703 9.25444 17.0562C8.3068 16.4093 7.69278 15.4786 7.41239 14.2642C7.13201 13.0497 7.28047 11.943 7.85778 10.944C8.43509 9.94513 9.36294 9.2981 10.6413 9.00296C11.034 8.9123 11.4117 8.86117 11.7745 8.84954C12.1373 8.83792 12.4399 8.85703 12.6823 8.90688C12.9246 8.95673 13.1378 9.01572 13.3219 9.08383C13.506 9.15194 13.6373 9.21058 13.7159 9.25976L13.8508 9.34404L13.0133 11.1532C12.9571 11.1181 12.8749 11.0745 12.7668 11.0226C12.6586 10.9706 12.4327 10.9194 12.0892 10.8688C11.7458 10.8183 11.4005 10.8331 11.0535 10.9132C10.4326 11.0565 9.97233 11.396 9.67279 11.9317C9.37325 12.4673 9.30465 13.0867 9.46697 13.7898C9.6293 14.4929 9.96248 15.0196 10.4665 15.3697C10.9705 15.7198 11.533 15.8232 12.154 15.6798C12.6927 15.5554 13.0738 15.3208 13.2971 14.9759C13.5205 14.631 13.5896 14.2327 13.5046 13.781L13.4824 13.6851L11.6059 14.1184ZM23.944 12.1932C24.1211 12.9603 23.9949 13.6218 23.5654 14.1778C23.1359 14.7338 22.4372 15.1236 21.4693 15.347L17.593 16.242L15.6956 8.02364L19.5172 7.14137C20.4668 6.92212 21.229 6.95295 21.8036 7.23387C22.3782 7.5148 22.7477 8.01138 22.9122 8.72364C22.9902 9.0615 22.9762 9.39657 22.8701 9.72883C22.7641 10.0611 22.5815 10.3533 22.3223 10.6055L22.3476 10.7151C22.7494 10.7474 23.0917 10.8968 23.3744 11.1633C23.6572 11.4299 23.8471 11.7732 23.944 12.1932ZM20.7778 11.9143L18.7917 12.3728L19.1838 14.0713L21.0877 13.6317C21.3434 13.5727 21.5367 13.4415 21.6677 13.2381C21.7987 13.0348 21.8378 12.8189 21.7851 12.5907C21.7367 12.3806 21.617 12.2063 21.4263 12.0676C21.2356 11.9288 21.0194 11.8778 20.7778 11.9143ZM20.8692 9.49827C20.8165 9.26998 20.6964 9.09333 20.5088 8.96831C20.3213 8.8433 20.1088 8.80819 19.8714 8.86301L18.077 9.27726L18.4502 10.8935L20.2034 10.4888C20.45 10.4318 20.6352 10.3073 20.7592 10.1152C20.8831 9.92306 20.9198 9.71742 20.8692 9.49827Z" fill="#3D2360"/>
<path fill-rule="evenodd" clip-rule="evenodd" d="M29.5232 21.1226V27.6505C29.5232 29.1551 28.3144 30.3748 26.8232 30.3748H20.3536C18.8625 30.3748 17.6536 29.1551 17.6536 27.6505V21.1226C17.6536 19.618 18.8625 18.3983 20.3536 18.3983H26.8232C28.3144 18.3983 29.5232 19.618 29.5232 21.1226Z" fill="#EB008B"/>
<path fill-rule="evenodd" clip-rule="evenodd" d="M23.833 22.2979V20.4323C23.8326 20.4219 23.8389 20.4122 23.8491 20.4078C23.8592 20.4034 23.8712 20.4051 23.8795 20.412L28.0128 23.6211C28.0194 23.6261 28.0232 23.6335 28.0232 23.6414C28.0232 23.6492 28.0194 23.6567 28.0128 23.6616L23.8795 26.8692C23.871 26.8764 23.8586 26.878 23.8483 26.8732C23.838 26.8684 23.8319 26.8582 23.833 26.8475V25.0919C23.8328 25.0121 23.7714 24.9439 23.6871 24.9299C23.1332 24.8373 21.0883 24.7 19.1147 27.2004C19.1051 27.2131 19.0881 27.2189 19.0719 27.215C19.0558 27.2112 19.0438 27.1985 19.0418 27.1831C18.9767 26.4585 18.8169 22.2979 23.833 22.2979Z" fill="white"/>
</svg>
