<svg width="32" height="32" viewBox="0 0 32 32" fill="none" xmlns="http://www.w3.org/2000/svg">
<path d="M27.7729 15.7203L25.2472 13.3613L25.2467 13.3608L16.5079 5.19906C16.3658 5.06651 16.1825 5 15.9997 5C15.8169 5 15.6337 5.06651 15.4916 5.19906L9.56896 10.731L4.22707 15.7203C3.93354 15.994 3.92325 16.4486 4.20404 16.7352C4.3486 16.8826 4.54167 16.9568 4.73524 16.9568C4.91802 16.9568 5.1008 16.8907 5.24341 16.7577L6.52632 15.5595V26.2818C6.52632 26.678 6.85514 26.9995 7.26138 26.9995H12.7753C13.1815 26.9995 13.5103 26.678 13.5103 26.2818V20.6355C13.5103 19.2947 14.6271 18.2042 16.0002 18.2042C17.3733 18.2042 18.4901 19.2947 18.4901 20.6355V26.2822C18.4901 26.6784 18.8194 27 19.2251 27H24.739C25.1448 27 25.4741 26.6784 25.4741 26.2822V15.5595L26.757 16.7577C27.0501 17.0314 27.5151 17.0214 27.7964 16.7352C28.0767 16.4486 28.0664 15.994 27.7729 15.7203Z" fill="#6E22D4" style="mix-blend-mode:multiply"/>
<mask id="mask0_95_8083" style="mask-type:luminance" maskUnits="userSpaceOnUse" x="4" y="5" width="24" height="22">
<path d="M27.7729 15.7203L25.2472 13.3613L25.2467 13.3608L16.5079 5.19906C16.3658 5.06651 16.1825 5 15.9997 5C15.8169 5 15.6337 5.06651 15.4916 5.19906L9.56896 10.731L4.22707 15.7203C3.93354 15.994 3.92325 16.4486 4.20404 16.7352C4.3486 16.8826 4.54167 16.9568 4.73524 16.9568C4.91802 16.9568 5.1008 16.8907 5.24341 16.7577L6.52632 15.5595V26.2818C6.52632 26.678 6.85514 26.9995 7.26138 26.9995H12.7753C13.1815 26.9995 13.5103 26.678 13.5103 26.2818V20.6355C13.5103 19.2947 14.6271 18.2042 16.0002 18.2042C17.3733 18.2042 18.4901 19.2947 18.4901 20.6355V26.2822C18.4901 26.6784 18.8194 27 19.2251 27H24.739C25.1448 27 25.4741 26.6784 25.4741 26.2822V15.5595L26.757 16.7577C27.0501 17.0314 27.5151 17.0214 27.7964 16.7352C28.0767 16.4486 28.0664 15.994 27.7729 15.7203Z" fill="white"/>
<path d="M27.7729 15.7203L25.2472 13.3613L25.2467 13.3608L16.5079 5.19906C16.3658 5.06651 16.1825 5 15.9997 5C15.8169 5 15.6337 5.06651 15.4916 5.19906L9.56896 10.731L4.22707 15.7203C3.93354 15.994 3.92325 16.4486 4.20404 16.7352C4.3486 16.8826 4.54167 16.9568 4.73524 16.9568C4.91802 16.9568 5.1008 16.8907 5.24341 16.7577L6.52632 15.5595V26.2818C6.52632 26.678 6.85514 26.9995 7.26138 26.9995H12.7753C13.1815 26.9995 13.5103 26.678 13.5103 26.2818V20.6355C13.5103 19.2947 14.6271 18.2042 16.0002 18.2042C17.3733 18.2042 18.4901 19.2947 18.4901 20.6355V26.2822C18.4901 26.6784 18.8194 27 19.2251 27H24.739C25.1448 27 25.4741 26.6784 25.4741 26.2822V15.5595L26.757 16.7577C27.0501 17.0314 27.5151 17.0214 27.7964 16.7352C28.0767 16.4486 28.0664 15.994 27.7729 15.7203Z" stroke="white"/>
</mask>
<g mask="url(#mask0_95_8083)">
<path fill-rule="evenodd" clip-rule="evenodd" d="M13.699 21.8788C20.4384 27.0719 25.0751 20.4231 32 30.1008V41H0V17.0203C0 17.0203 6.95964 16.6856 13.699 21.8788Z" fill="#B986FE"/>
</g>
</svg>
