<svg width="16" height="16" viewBox="0 0 16 16" fill="none" xmlns="http://www.w3.org/2000/svg">
<path fill-rule="evenodd" clip-rule="evenodd" d="M1.30072 3.60995C-1.09665 7.39364 -0.0715908 11.4104 3.48371 13.9613C7.03927 16.512 13.3615 15.5708 14.8259 13.139C17.0985 9.26916 15.9559 4.76401 12.4003 2.21311C8.84527 -0.3375 3.69756 -0.173453 1.30072 3.60995ZM13.3339 7.67909C13.0637 7.08891 12.208 6.2491 11.4978 5.69629C11.4123 5.6298 11.2495 5.4723 11.0367 5.26641C10.1068 4.36694 8.22214 2.54381 7.66189 3.34934C7.29278 3.87991 9.32866 5.79159 10.2304 6.63835L10.2305 6.63838L10.2305 6.63845C10.3746 6.77373 10.4897 6.88182 10.5614 6.95274C10.6643 7.05449 10.7723 7.15935 10.8838 7.26412C10.3873 7.25123 9.87498 7.25496 9.40806 7.27207C9.25154 7.27781 8.93811 7.26862 8.52837 7.25661L8.52832 7.25661C6.73818 7.20413 3.10979 7.09775 2.69622 7.94723C2.42366 8.50679 6.31467 8.58397 8.03813 8.61816L8.03828 8.61816C8.31365 8.62362 8.53368 8.62799 8.67252 8.63305C9.52755 8.6642 10.5469 8.67873 11.4231 8.58354C10.8579 9.02679 10.2903 9.5759 9.8951 9.95818L9.89505 9.95823C9.68223 10.1641 9.51944 10.3216 9.434 10.3881C8.45734 11.1483 7.20546 12.4513 7.57959 12.9014C8.19868 13.6465 9.47679 12.5281 10.3703 11.6445C10.4421 11.5736 10.5572 11.4654 10.7013 11.3301L10.7013 11.3301C11.5064 10.5742 13.2153 8.96952 13.31 8.25649C13.3244 8.24177 13.3384 8.22616 13.3522 8.20963C13.4448 8.09819 13.4378 7.93447 13.3599 7.73965C13.3565 7.71869 13.3477 7.69851 13.3339 7.67909Z" fill="white"/>
</svg>
