<svg width="32" height="32" viewBox="0 0 32 32" fill="none" xmlns="http://www.w3.org/2000/svg">
<path d="M27.1999 26.4H6.40001C5.07658 26.4 4 25.458 4 24.3V20.8C4 20.4131 4.3578 20.1 4.8 20.1C6.12343 20.1 7.20001 19.158 7.20001 18C7.20001 16.842 6.12343 15.9 4.8 15.9C4.3578 15.9 4 15.5869 4 15.2V11.7C4 10.542 5.07658 9.6 6.40001 9.6H27.2C28.5234 9.6 29.6 10.542 29.6 11.7V15.2C29.6 15.5869 29.2422 15.9 28.8 15.9C27.4766 15.9 26.4 16.842 26.4 18C26.4 19.158 27.4766 20.1 28.8 20.1C29.2422 20.1 29.6 20.4131 29.6 20.8V24.3C29.5999 25.458 28.5234 26.4 27.1999 26.4Z" fill="#3D2360"/>
<path d="M29.6825 21.4585L7.07994 27.5149C5.64181 27.9002 4.2049 27.2171 3.87664 25.9921L2.8845 22.2893C2.77482 21.88 3.07488 21.4446 3.55541 21.3158C4.99353 20.9305 5.89639 19.6205 5.56813 18.3954C5.23988 17.1703 3.80296 16.4872 2.36484 16.8726C1.88432 17.0014 1.40677 16.7743 1.29708 16.365L0.304942 12.6623C-0.0233144 11.4372 0.879541 10.1272 2.31767 9.74184L24.9203 3.68548C26.3584 3.30013 27.7953 3.98323 28.1236 5.2083L29.1157 8.91102C29.2254 9.32036 28.9254 9.75575 28.4448 9.88451C27.0067 10.2699 26.1039 11.5799 26.4321 12.805C26.7604 14.03 28.1973 14.7131 29.6354 14.3278C30.1159 14.199 30.5935 14.426 30.7032 14.8354L31.6953 18.5381C32.0235 19.7631 31.1207 21.0732 29.6825 21.4585Z" fill="#00E2BC"/>
<path d="M7.28516 10.8952L10.8051 24.0318" stroke="white" stroke-width="3" stroke-linecap="square" stroke-linejoin="bevel" stroke-dasharray="3 2"/>
<path d="M17.0133 11.4365C17.1752 10.6236 18.199 10.3493 18.7456 10.9723L19.5152 11.8493C19.7323 12.0967 20.0572 12.2215 20.3841 12.1829L21.5429 12.0461C22.366 11.9489 22.9432 12.8378 22.5197 13.5502L21.9234 14.5532C21.7552 14.8361 21.737 15.1836 21.8747 15.4826L22.3629 16.5424C22.7096 17.2952 22.0426 18.1188 21.2342 17.9361L20.0961 17.679C19.775 17.6064 19.4389 17.6965 19.1971 17.9199L18.34 18.7116C17.7312 19.2741 16.7418 18.8942 16.6657 18.0689L16.5586 16.907C16.5283 16.5793 16.3388 16.2874 16.0517 16.1265L15.0338 15.556C14.3108 15.1508 14.3662 14.0924 15.1277 13.765L16.1996 13.3041C16.502 13.1741 16.721 12.9036 16.7853 12.5808L17.0133 11.4365Z" fill="#3D2360"/>
</svg>
