<svg width="32" height="32" viewBox="0 0 32 32" fill="none" xmlns="http://www.w3.org/2000/svg">
<rect x="2.3999" y="8.94315" width="22.0213" height="22.0213" rx="4" transform="rotate(-13 2.3999 8.94315)" fill="#C30175"/>
<rect x="3.77344" y="6.5537" width="22.0213" height="22.0213" rx="4" transform="rotate(-13 3.77344 6.5537)" fill="#EB008B"/>
<rect x="12.4043" y="20.6726" width="12.5961" height="2.51923" rx="1.25961" transform="rotate(-13 12.4043 20.6726)" fill="white"/>
<path fill-rule="evenodd" clip-rule="evenodd" d="M16.5524 10.665C13.841 11.291 12.1505 13.9964 12.7765 16.7077L13.6265 20.3897L23.4452 18.1229L22.5951 14.4409C21.9692 11.7296 19.2637 10.039 16.5524 10.665ZM17.781 15.9836C17.1032 16.1401 16.6806 16.8165 16.837 17.4943L17.0689 18.4985C17.0973 18.6217 17.2203 18.6986 17.3435 18.6701L19.3519 18.2064C19.4751 18.178 19.552 18.055 19.5235 17.9318L19.2917 16.9276C19.1352 16.2498 18.4589 15.8271 17.781 15.9836Z" fill="white"/>
<path fill-rule="evenodd" clip-rule="evenodd" d="M17.5807 11.91C17.6277 11.661 17.8676 11.4973 18.1166 11.5442C19.5111 11.8073 20.7402 12.6741 21.4497 13.9244C21.6769 14.3247 21.8505 14.7638 21.959 15.2339C22.016 15.4808 21.8621 15.7271 21.6152 15.7841C21.3683 15.8411 21.1219 15.6872 21.0649 15.4403C20.9766 15.0574 20.8356 14.7013 20.6517 14.3772C20.0767 13.3639 19.0785 12.6595 17.9465 12.4459C17.6975 12.3989 17.5338 12.159 17.5807 11.91Z" fill="#EB008B"/>
<path d="M15.9887 8.21005L15.7053 6.98272" stroke="white" stroke-linecap="round"/>
<path d="M11.204 11.5214L10.1357 10.8539" stroke="white" stroke-linecap="round"/>
<path d="M21.3845 9.17161L22.052 8.10339" stroke="white" stroke-linecap="round"/>
</svg>
