<svg width="24" height="24" viewBox="0 0 24 24" fill="none" xmlns="http://www.w3.org/2000/svg">
<path fill-rule="evenodd" clip-rule="evenodd" d="M5.72481 20.8762C0.609037 17.054 -0.441018 11.7472 3.0086 6.07778C6.45744 0.408787 14.4972 -0.512507 19.6126 3.30929C24.7288 7.13152 22.5918 16.5966 20.8203 19.2369C18.0032 22.878 10.841 24.698 5.72481 20.8762Z" fill="#EB008B"/>
<path fill-rule="evenodd" clip-rule="evenodd" d="M12.4817 8.98574C12.0549 8.98574 11.7012 8.84628 11.4207 8.56735C11.1402 8.28843 11 7.93344 11 7.50238C11 7.07131 11.1402 6.71315 11.4207 6.42789C11.7012 6.14263 12.0549 6 12.4817 6C12.9085 6 13.2683 6.14263 13.561 6.42789C13.8537 6.71315 14 7.07131 14 7.50238C14 7.93344 13.8537 8.28843 13.561 8.56735C13.2683 8.84628 12.9085 8.98574 12.4817 8.98574ZM11.1463 18V10.0127H13.7805V18H11.1463Z" fill="white"/>
</svg>
